<?xml version="1.0" encoding="UTF-8"?>
<svg version="1.1" xmlns="http://www.w3.org/2000/svg" width="1000" height="1000" viewBox="0 0 1000 1000" preserveAspectRatio="xMidYMid meet">
<path d="M0 0 C0.84433594 -0.02449219 1.68867188 -0.04898437 2.55859375 -0.07421875 C10.18482392 1.85961075 16.27877625 7.96129364 21.68536377 13.42268372 C22.67165933 14.40090097 22.67165933 14.40090097 23.67788005 15.39888018 C25.8565159 17.56332705 28.0244075 19.73820948 30.19238281 21.91333008 C31.76132142 23.47656049 33.33088788 25.03916096 34.90103149 26.60118103 C39.14748775 30.82974302 43.384383 35.06776227 47.6190424 39.30813432 C51.16004988 42.85223827 54.7056467 46.39173308 58.2512176 49.93127078 C67.09397031 58.75919178 75.92748732 67.59629853 84.75676975 76.43768623 C92.41268644 84.10353866 100.07998792 91.75788561 107.75282088 99.40680317 C115.64714191 107.27670498 123.53381837 115.15420766 131.41281772 123.03945273 C135.83003507 127.46003743 140.25008556 131.87768921 144.67758942 136.2879734 C148.8398495 140.43474928 152.99225845 144.5911459 157.13737106 148.7550602 C158.65726918 150.27863965 160.18056179 151.79884174 161.70753098 153.31533432 C163.79696202 155.39152401 165.87358839 157.4797591 167.9475708 159.57136536 C168.54941924 160.16360879 169.15126769 160.75585223 169.77135396 161.36604244 C178.98916777 170.74490045 181.86628545 180.44813003 181.8371582 193.32983398 C181.8448246 195.07991005 181.8448246 195.07991005 181.85264587 196.86534119 C181.86654078 200.72147766 181.86558416 204.57743521 181.86328125 208.43359375 C181.86559259 210.44373009 181.8690968 212.45386205 181.872688 214.46399647 C181.88377357 220.78941095 181.88422829 227.11476606 181.87817383 233.44018555 C181.87215702 239.92935471 181.88438849 246.41830578 181.9057439 252.90743774 C181.92347461 258.50436373 181.9293427 264.10122109 181.92610615 269.69817406 C181.92430863 273.0292228 181.92812164 276.35999403 181.94082069 279.69103813 C182.08124973 321.70429717 182.08124973 321.70429717 167 338.125 C154.44857997 349.75662131 139.97963626 352.00745355 123.49609375 352.0234375 C121.93245831 352.02987445 120.36882404 352.03660346 118.80519104 352.04360962 C115.53977668 352.0555367 112.27446779 352.05929487 109.0090332 352.05810547 C104.83730052 352.05790183 100.66624561 352.08527011 96.49467373 352.11964989 C93.26976953 352.14194196 90.04502836 352.14594241 86.82005501 352.14488602 C85.28234572 352.14723595 83.74463153 352.1560251 82.20699883 352.17155075 C67.31291357 352.30794275 67.31291357 352.30794275 61.5625 347.6875 C57.33178875 343.12278523 56.43833712 339.88436306 56.43119812 333.76191711 C56.42518585 331.90513084 56.42518585 331.90513084 56.41905212 330.01083374 C56.41952722 328.63653562 56.42006334 327.26223753 56.4206543 325.88793945 C56.41762254 324.44236647 56.41410104 322.99679445 56.41012573 321.55122375 C56.40223634 318.4360932 56.3970916 315.32097411 56.39383507 312.20583534 C56.38792264 307.27603786 56.3713791 302.34631249 56.35249329 297.41654968 C56.34615578 295.72823434 56.33983016 294.03991894 56.33351612 292.35160351 C56.33035031 291.50603496 56.3271845 290.66046641 56.32392275 289.78927457 C56.28186649 278.31241011 56.24888281 266.83557895 56.23657227 255.35864258 C56.2281834 247.61736398 56.20566095 239.87626371 56.1672166 232.13507432 C56.14748123 228.04019135 56.13504288 223.94557481 56.14005089 219.85064125 C56.14470846 215.99519051 56.13083205 212.14024408 56.10303879 208.28489494 C56.09614518 206.87405681 56.09598071 205.46316632 56.10323906 204.05233002 C56.13960689 196.18550459 55.93722581 190.35846112 51.5625 183.6875 C46.45674381 178.94644068 43.02787321 178.53280823 36.26074219 178.51049805 C35.40202011 178.50392685 34.54329803 178.49735565 33.65855408 178.49058533 C30.80882688 178.47083029 27.95915246 178.45918423 25.109375 178.44921875 C24.1368 178.44514322 23.16422501 178.4410677 22.16217804 178.43686867 C17.01355704 178.41599755 11.86496277 178.40170089 6.71630859 178.39233398 C1.39873045 178.38127324 -3.9184288 178.3468801 -9.23585892 178.30716228 C-13.32455217 178.28101107 -17.41314545 178.27264342 -21.50191498 178.26905251 C-23.46190975 178.26418192 -25.42189992 178.25255452 -27.38181305 178.23401451 C-30.12760025 178.20965714 -32.87230181 178.21058195 -35.61816406 178.2175293 C-36.42566605 178.20471924 -37.23316803 178.19190918 -38.06513977 178.17871094 C-43.31201326 178.22701708 -46.2755022 179.21767469 -50.4375 182.6875 C-54.28572123 187.78379299 -55.56144347 191.30159665 -55.56880188 197.61981201 C-55.57281006 198.85911469 -55.57681824 200.09841736 -55.58094788 201.37527466 C-55.58047278 202.75115969 -55.57993666 204.1270447 -55.5793457 205.50292969 C-55.58237743 206.95012518 -55.58589892 208.39731973 -55.58987427 209.84451294 C-55.59776337 212.96291968 -55.60290826 216.08131498 -55.60616493 219.19972992 C-55.61207635 224.13345335 -55.62861851 229.06710469 -55.64750671 234.00079346 C-55.65384417 235.69021221 -55.66016979 237.379631 -55.66648388 239.06904984 C-55.66964969 239.91514895 -55.6728155 240.76124806 -55.67607725 241.63298655 C-55.71814242 253.11924383 -55.75112299 264.6054677 -55.76342773 276.09179688 C-55.77181253 283.83929184 -55.79431925 291.58660844 -55.8327834 299.33401418 C-55.8525312 303.4327777 -55.86495296 307.53127467 -55.85994911 311.63008881 C-55.85529679 315.48799898 -55.86913941 319.3454043 -55.89696121 323.20321274 C-55.90386341 324.61608345 -55.90400996 326.02900648 -55.89676094 327.44187546 C-55.83548072 340.73194952 -55.83548072 340.73194952 -60.4375 346.6875 C-65.23914884 351.13780868 -68.65771576 351.81240998 -75.08935547 351.86450195 C-75.76141525 351.87107315 -76.43347504 351.87764435 -77.12590027 351.88441467 C-79.35216394 351.90413309 -81.57835981 351.91581393 -83.8046875 351.92578125 C-84.56902225 351.92985678 -85.33335701 351.9339323 -86.12085342 351.93813133 C-90.17529275 351.9589971 -94.22969829 351.97329026 -98.28417969 351.98266602 C-102.44085761 351.99366385 -106.59699031 352.02798409 -110.7534771 352.06783772 C-113.97432331 352.09420368 -117.19504433 352.10237591 -120.41598892 352.10594749 C-121.9459611 352.110771 -123.47592932 352.1222615 -125.00579453 352.14098549 C-141.18329379 352.32649402 -154.91900952 348.78198376 -167.125 337.6875 C-183.26157298 320.60843692 -181.89402204 297.7055385 -181.8359375 275.8515625 C-181.8366082 273.15928824 -181.84087253 270.46702121 -181.84463501 267.77474976 C-181.85005922 262.15854388 -181.84298471 256.54245723 -181.82861328 250.92626953 C-181.81224521 244.45552693 -181.81761865 237.98506739 -181.8340925 231.51433146 C-181.84774608 225.92495049 -181.84960962 220.33565422 -181.84177649 214.74626195 C-181.83712726 211.42228453 -181.83759805 208.0984677 -181.84638596 204.77449417 C-181.85403046 201.07293942 -181.8423555 197.37192481 -181.82568359 193.67041016 C-181.83175629 192.58554321 -181.83782898 191.50067627 -181.84408569 190.38293457 C-181.68382069 171.11164051 -169.08323436 161.03474076 -156.26586914 148.24121094 C-154.72078064 146.69177 -153.17610891 145.14191336 -151.63182068 143.5916748 C-147.4547712 139.40128493 -143.2713912 135.21727087 -139.08639836 131.03481579 C-135.58797199 127.53746197 -132.09253303 124.03712981 -128.5970363 120.53684831 C-120.35064291 112.27937803 -112.09895505 104.02722498 -103.84399414 95.77832031 C-96.27700194 88.21670538 -88.71617881 80.64898938 -81.16137695 73.07519531 C-72.91757532 64.81074377 -64.66869249 56.5514131 -56.41272253 48.29911637 C-52.04855864 43.9367638 -47.68664001 39.57222497 -43.33033943 35.20201874 C-39.23547637 31.09457276 -35.13340963 26.99445935 -31.02573586 22.89982605 C-29.52195495 21.39840899 -28.02071434 19.89444254 -26.52225113 18.3877182 C-24.47196144 16.32694423 -22.41257934 14.27569383 -20.35072327 12.22650146 C-19.47068487 11.33540165 -19.47068487 11.33540165 -18.57286793 10.42629981 C-13.47309072 5.3919186 -7.52179746 -0.03434611 0 0 Z " fill="#B82FFD" transform="translate(499.4375,374.3125)"/>
<path d="M0 0 C10.06459012 7.60592926 19.00172314 16.67018107 27.88842773 25.59008789 C29.60222858 27.3092742 31.32134707 29.02301333 33.04101562 30.73632812 C38.15473763 35.84723448 43.16994285 40.97069827 47.86499023 46.47436523 C50.54586492 49.54155019 53.44689492 52.38472111 56.34765625 55.2421875 C56.93611328 55.82613281 57.52457031 56.41007812 58.13085938 57.01171875 C59.55495418 58.42423555 60.98220875 59.8335656 62.41015625 61.2421875 C62.4241748 59.87453247 62.4241748 59.87453247 62.43847656 58.47924805 C62.48291473 55.04378556 62.54471217 51.60949183 62.61767578 48.17456055 C62.64562128 46.69778535 62.66696497 45.22086793 62.68115234 43.74389648 C62.8035001 31.71711229 63.80852695 20.93761836 72.57421875 11.89453125 C78.7473586 6.33870539 85.21871767 4.75546178 93.41015625 4.2421875 C101.20955996 4.68559383 108.57708926 7.48444279 114.19921875 12.99609375 C122.09332336 22.62067942 121.83364941 33.73121503 121.7902813 45.55029297 C121.78107993 48.29287808 121.79149633 51.03479268 121.80690002 53.77734375 C121.84675492 61.56769932 121.84820443 69.35799681 121.84594727 77.1484375 C121.84589595 81.93228391 121.86516481 86.7157655 121.89528084 91.49951172 C121.90602576 94.18612038 121.89402636 96.87200909 121.88145447 99.55859375 C121.90391771 112.86666096 123.77158359 121.56377218 133.41015625 131.2421875 C133.87679688 131.71513371 134.3434375 132.18807991 134.82421875 132.67535782 C138.32813063 136.2229362 141.86787477 139.73315792 145.41845703 143.23395729 C147.44920313 145.23774732 149.47527771 147.24615152 151.5 149.25602722 C157.25191256 154.96550643 163.00644633 160.67225143 168.77734375 166.36254883 C172.32145508 169.85782922 175.85546008 173.36306297 179.38330078 176.87476158 C180.71911661 178.20075856 182.05855923 179.52311333 183.40185547 180.84153175 C204.62669045 201.68183921 204.62669045 201.68183921 204.78515625 216.0546875 C204.68988173 222.13320216 203.94203075 226.2975632 200.41015625 231.2421875 C199.29640625 232.82 199.29640625 232.82 198.16015625 234.4296875 C192.5047643 240.21361109 185.96520017 244.03195294 177.7265625 244.34375 C160.03014498 243.74543159 149.94639371 231.5994888 138.33178711 219.79736328 C136.53639634 217.99536107 134.73965208 216.19470653 132.94166565 214.39529419 C129.08611042 210.5309677 125.23980683 206.65779526 121.40156364 202.77627945 C115.84186485 197.15420598 110.26393349 191.55050349 104.68128104 185.95123278 C95.60826437 176.85050896 86.54761842 167.73757752 77.49584961 158.61572266 C76.95524792 158.07094103 76.41464624 157.52615941 75.85766269 156.96486925 C75.31640594 156.41942591 74.7751492 155.87398257 74.21749073 155.31201065 C66.54614071 147.58137224 58.87189782 139.85362136 51.1940918 132.12939453 C50.65385673 131.58588691 50.11362166 131.04237929 49.55701583 130.48240174 C40.5295624 121.40076556 31.49592844 112.32529329 22.45914942 103.2529372 C16.89764569 97.66874917 11.34243786 92.07842992 5.79543436 86.47983716 C1.54037251 82.18577022 -2.72214585 77.89918575 -6.98731422 73.61515427 C-8.72858898 71.86351242 -10.46724534 70.10926296 -12.20300674 68.35215759 C-26.25013917 52.23471518 -26.25013917 52.23471518 -44.71484375 43.8671875 C-60.66481392 44.22163128 -77.6344661 68.1824962 -88.03149414 78.66552734 C-89.74763946 80.3917989 -91.46406283 82.11779407 -93.18074036 83.84353638 C-96.37999255 87.06019421 -99.5784701 90.27761681 -102.77571832 93.49626656 C-109.0560538 99.81853713 -115.34346964 106.13372572 -121.63340759 112.44644165 C-122.62847577 113.44517871 -123.62354131 114.4439184 -124.61860424 115.44266069 C-126.12558004 116.95518841 -127.63256445 118.46770754 -129.13956876 119.98020684 C-134.79593535 125.65720878 -140.45176187 131.33474823 -146.10668945 137.01318359 C-146.62253841 137.53117191 -147.13838736 138.04916023 -147.6698681 138.58284517 C-156.04215601 146.99043345 -164.40525894 155.40710693 -172.76552362 163.82664864 C-181.37914554 172.50081985 -190.00429096 181.16341462 -198.63969606 189.81590044 C-203.9503613 195.13785953 -209.25173163 200.46873844 -214.54123913 205.81172819 C-218.59621533 209.90584427 -222.66700197 213.98394368 -226.74371147 218.05640793 C-228.40652799 219.72246 -230.06423379 221.39363181 -231.71626282 223.07038116 C-252.28224321 243.93002426 -252.28224321 243.93002426 -267.63671875 244.47265625 C-275.86223324 243.83071795 -283.14440602 240.46757074 -288.58984375 234.2421875 C-294.47660484 226.16322111 -295.61823081 219.23520111 -294.58984375 209.2421875 C-292.04670923 200.5630646 -286.34042562 194.21448479 -280.13720703 187.89718628 C-277.87760839 185.58104507 -275.64685623 183.24415951 -273.44921875 180.86917114 C-260.65781844 167.05924708 -247.30445015 153.80937661 -233.98985672 140.50787497 C-230.55283914 137.07342538 -227.11830296 133.63649558 -223.68334961 130.19998169 C-217.92952659 124.44435195 -212.17362645 118.69080579 -206.41650391 112.93847656 C-199.77861579 106.30605156 -193.14436888 99.67000066 -186.51195526 93.03210151 C-180.78346432 87.29906434 -175.05301693 81.5679882 -169.32094574 75.83853066 C-165.91164085 72.43077725 -162.50299743 69.02236957 -159.09613037 65.6121788 C-155.90041361 62.41356048 -152.70223578 59.21742296 -149.50219154 56.02313423 C-148.33395424 54.8562113 -147.16655238 53.68845123 -146.00008202 52.51976204 C-140.55555629 47.06583983 -135.11943718 41.6521466 -129.23453903 36.66624451 C-126.36864468 34.18481407 -123.7480029 31.46471028 -121.10546875 28.75 C-119.91045644 27.53746449 -118.71513407 26.3252345 -117.51953125 25.11328125 C-115.68238892 23.24537337 -113.84770461 21.37524857 -112.01855469 19.49951172 C-102.19488613 9.44018104 -92.2982662 -0.08510385 -79.40234375 -6.1328125 C-78.72453857 -6.46095947 -78.0467334 -6.78910645 -77.34838867 -7.12719727 C-51.77234462 -19.29533312 -23.10913123 -15.6849307 0 0 Z " fill="#B72FFD" transform="translate(544.58984375,287.7578125)"/>
</svg>
