<?xml version="1.0" encoding="UTF-8"?>
<svg version="1.1" xmlns="http://www.w3.org/2000/svg" width="1000" height="1000" viewBox="0 0 1000 1000" preserveAspectRatio="xMidYMid meet">
<path d="M0 0 C50.16 0 100.32 0 152 0 C153.70251484 1.70251484 153.12334342 3.83959257 153.13100848 6.1109058 C153.12838146 6.85109072 153.12575445 7.59127565 153.12304783 8.35389042 C153.12420167 9.13676128 153.12535552 9.91963214 153.12654433 10.72622636 C153.12921828 13.38334659 153.12468247 16.04040778 153.12025452 18.69752502 C153.12069006 20.60817079 153.12156465 22.51881651 153.12284368 24.4294619 C153.12509197 29.70613877 153.12106283 34.98279555 153.11606562 40.25946987 C153.11176606 45.93980529 153.11320719 51.62013948 153.1139679 57.30047607 C153.11449345 67.15080092 153.11134341 77.00111916 153.10573006 86.85144234 C153.09761925 101.09353533 153.09500027 115.33562511 153.09374207 129.57772016 C153.09155088 152.68194237 153.08489757 175.78616062 153.07543945 198.89038086 C153.06625979 221.34025046 153.05917384 243.79011913 153.05493164 266.23999023 C153.05480011 266.9316066 153.05466859 267.62322296 153.05453308 268.33579739 C153.05321459 275.28109193 153.05193877 282.22638647 153.05069422 289.17168102 C153.04024748 347.44779026 153.02176693 405.72389365 153 464 C102.51 464 52.02 464 0 464 C0 310.88 0 157.76 0 0 Z M69 172 C67.39633188 174.15333529 65.99859736 176.21220753 64.625 178.5 C64.23779785 179.12366455 63.8505957 179.7473291 63.45166016 180.38989258 C62.66467853 181.65784342 61.88191436 182.92842222 61.10351562 184.20166016 C59.55960139 186.71769385 57.967454 189.20198058 56.375 191.6875 C54.61766842 194.45018872 52.86424746 197.21517623 51.1171875 199.984375 C50.19292969 201.44617188 50.19292969 201.44617188 49.25 202.9375 C48.42242187 204.25041016 48.42242187 204.25041016 47.578125 205.58984375 C46 208 46 208 44.328125 210.0703125 C42.56141191 212.6372427 42.45812318 214.961588 42.58984375 218.03125 C43.32609979 221.565279 45.12557981 222.98179008 48 225 C51.6469862 225.95973321 53.89178895 226.42623502 57.4375 225.0625 C57.953125 224.711875 58.46875 224.36125 59 224 C59 223.34 59 222.68 59 222 C59.66 222 60.32 222 61 222 C62.65 219.36 64.3 216.72 66 214 C66.33 234.46 66.66 254.92 67 276 C62.38 276 57.76 276 53 276 C48.3477944 277.43671055 46.68353773 277.9746934 44 282 C43.28403209 287.96976521 43.28403209 287.96976521 46.3125 292.9375 C49.88494289 295.67914222 52.38654767 296.12562512 56.75927734 296.14526367 C57.72392914 296.15164352 58.68858093 296.15802338 59.6824646 296.16459656 C60.72311066 296.16570938 61.76375671 296.1668222 62.8359375 296.16796875 C64.44319199 296.17296135 64.44319199 296.17296135 66.08291626 296.17805481 C68.35084605 296.18311996 70.61878331 296.18546326 72.88671875 296.18530273 C76.35429189 296.18748696 79.82154576 296.205641 83.2890625 296.22460938 C85.49218641 296.22754383 87.69531183 296.22952828 89.8984375 296.23046875 C90.9350351 296.23765427 91.97163269 296.24483978 93.03964233 296.25224304 C94.01059845 296.24916641 94.98155457 296.24608978 95.98193359 296.24291992 C97.25742569 296.24505745 97.25742569 296.24505745 98.5586853 296.24723816 C102.69824344 295.82801456 105.33726411 294.6448241 108.3125 291.75 C110.35137165 288.42739435 110.63894172 286.8336503 110 283 C107.54142299 278.99343005 105.439503 277.36884676 101 276 C97.41569055 275.75917126 97.41569055 275.75917126 93.6875 275.875 C92.43324219 275.89304687 91.17898438 275.91109375 89.88671875 275.9296875 C88.93410156 275.95289063 87.98148438 275.97609375 87 276 C87.01332367 274.15956619 87.01332367 274.15956619 87.0269165 272.2819519 C87.10801618 260.71698253 87.16797221 249.15207089 87.20724869 237.58688164 C87.22811999 231.64113383 87.25642988 225.69561565 87.30175781 219.75 C87.34523097 214.01173776 87.36914054 208.27369635 87.37950897 202.53528214 C87.38689763 200.34641163 87.40132592 198.15755316 87.42292023 195.9687767 C87.4519731 192.90193346 87.45595512 189.83600177 87.45410156 186.76904297 C87.46848267 185.86489151 87.48286377 184.96074005 87.49768066 184.02919006 C87.46077218 178.38249586 86.67393742 175.34572995 83 171 C78.02266192 167.46769556 73.69077631 168.61338571 69 172 Z " fill="#B82FFD" transform="translate(422,361)"/>
<path d="M0 0 C50.16 0 100.32 0 152 0 C152 97.02 152 194.04 152 294 C101.84 294 51.68 294 0 294 C0 196.98 0 99.96 0 0 Z M51 92 C51 92.66 51 93.32 51 94 C50.01 94.33 49.02 94.66 48 95 C41.30106076 102.92235354 38.4188109 109.83314235 38.625 120.20703125 C38.83370842 123.23927145 38.83370842 123.23927145 41.0625 126.25 C44.71732021 128.4273397 46.80732185 128.53361358 51 128 C53.90716956 127.11169819 54.82207889 126.23063847 56.6875 123.8125 C58.18165323 120.9689391 58.18165323 120.9689391 58.5 117.4375 C59.01545711 113.89373237 59.74210818 112.65056865 62 110 C62 109.34 62 108.68 62 108 C67.59834148 104.98550843 72.59524516 103.4381794 79 104 C83.68084383 105.56028128 86.38999987 106.81499979 89 111 C90.73071124 116.60514434 90.3214815 121.16477888 87.8125 126.4375 C85.96920834 129.9068979 84.13774727 131.6954019 81 134 C81 134.66 81 135.32 81 136 C80.34 136 79.68 136 79 136 C79 136.66 79 137.32 79 138 C78.41428223 138.259021 77.82856445 138.51804199 77.22509766 138.78491211 C74.83515094 140.09002126 73.2928166 141.49339328 71.3984375 143.44140625 C70.74359375 144.10720703 70.08875 144.77300781 69.4140625 145.45898438 C68.40472656 146.50022461 68.40472656 146.50022461 67.375 147.5625 C66.03088131 148.94098537 64.68462847 150.31739401 63.3359375 151.69140625 C62.74345215 152.30185791 62.1509668 152.91230957 61.54052734 153.54125977 C60 155 60 155 58 156 C58 156.66 58 157.32 58 158 C57.401875 158.28875 56.80375 158.5775 56.1875 158.875 C53.80672208 160.04742026 53.80672208 160.04742026 51 162 C51 162.66 51 163.32 51 164 C50.40646729 164.25450928 49.81293457 164.50901855 49.20141602 164.77124023 C44.99677319 167.11813691 42.84809143 170.62596282 41 175 C40.2723625 180.16084965 40.38506405 185.2436345 40.5625 190.4375 C40.58406809 191.82483061 40.60296813 193.21220538 40.61914062 194.59960938 C40.40675015 200.98822074 40.40675015 200.98822074 42 207 C42.66 207 43.32 207 44 207 C44 207.66 44 208.32 44 209 C47.66235877 210.67281272 50.520754 211.2520682 54.53710938 211.25878906 C55.62173462 211.26509338 56.70635986 211.27139771 57.82385254 211.27789307 C59.56620178 211.27182037 59.56620178 211.27182037 61.34375 211.265625 C62.54559937 211.26753845 63.74744873 211.2694519 64.98571777 211.27142334 C67.52417205 211.27278301 70.06263334 211.26910184 72.60107422 211.26074219 C76.48551052 211.25003992 80.36948433 211.26064523 84.25390625 211.2734375 C86.72135519 211.27211587 89.18880384 211.2695534 91.65625 211.265625 C92.81781616 211.26967346 93.97938232 211.27372192 95.17614746 211.27789307 C96.80308533 211.26843658 96.80308533 211.26843658 98.46289062 211.25878906 C99.41377563 211.25719788 100.36466064 211.25560669 101.34436035 211.25396729 C105.59719635 210.84725502 108.25317891 209.72663674 111.3125 206.75 C113.37511212 203.38870618 113.71222525 201.87767078 113 198 C111.29110548 195.09555476 109.39523417 192.48759793 106.10894775 191.33912659 C103.86952544 190.97901921 101.77512049 190.87995655 99.50683594 190.88647461 C98.62622498 190.88655014 97.74561401 190.88662567 96.83831787 190.88670349 C95.42561615 190.89444542 95.42561615 190.89444542 93.984375 190.90234375 C93.01340881 190.9037587 92.04244263 190.90517365 91.04205322 190.90663147 C87.94467065 190.91222337 84.84736068 190.92477441 81.75 190.9375 C79.64843854 190.94251605 77.54687596 190.94707877 75.4453125 190.95117188 C70.29684708 190.96219015 65.14843584 190.97944926 60 191 C60 187.37 60 183.74 60 180 C60.66 180 61.32 180 62 180 C62 179.34 62 178.68 62 178 C62.53625 177.773125 63.0725 177.54625 63.625 177.3125 C66.82460161 175.54429911 69.29037223 173.46329797 72 171 C72 170.34 72 169.68 72 169 C72.59095459 168.73574219 73.18190918 168.47148438 73.79077148 168.19921875 C76.08006809 166.95653724 77.5403626 165.67548057 79.34765625 163.8125 C79.95287109 163.19632813 80.55808594 162.58015625 81.18164062 161.9453125 C82.11266602 160.98238281 82.11266602 160.98238281 83.0625 160 C84.30107442 158.72691422 85.54187616 157.45599068 86.78515625 156.1875 C87.60318726 155.34251953 87.60318726 155.34251953 88.43774414 154.48046875 C90 153 90 153 93 151 C93 150.34 93 149.68 93 149 C93.66 149 94.32 149 95 149 C95 148.34 95 147.68 95 147 C95.58652344 146.75636719 96.17304688 146.51273438 96.77734375 146.26171875 C102.88426652 142.7950473 106.80097709 135.4749008 109 129 C111.30644458 119.5645449 110.8128379 108.69113312 106 100.125 C104.6855288 98.07113875 103.35262486 96.02893729 102 94 C101.34 94 100.68 94 100 94 C100 93.34 100 92.68 100 92 C82.54142861 81.79443805 68.39907523 81.65811977 51 92 Z " fill="#BA35FE" transform="translate(251,531)"/>
<path d="M0 0 C1.11997848 0.00092179 2.23995695 0.00184359 3.39387417 0.00279331 C4.67152425 0.00141582 5.94917433 0.00003832 7.26554108 -0.00138092 C8.70028168 0.00216635 10.13502206 0.00580425 11.56976223 0.00952244 C13.09175489 0.00982855 14.61374769 0.00969567 16.13574028 0.00915718 C20.22556326 0.00893066 24.3153572 0.01474239 28.4051733 0.02176762 C32.23758445 0.02744661 36.0699884 0.02772987 39.90240383 0.02844334 C51.12347704 0.03369858 62.3445448 0.04765962 73.56561184 0.06054783 C98.62498684 0.08117283 123.68436184 0.10179783 149.50311184 0.12304783 C149.50311184 65.46304783 149.50311184 130.80304783 149.50311184 198.12304783 C99.01311184 198.12304783 48.52311184 198.12304783 -3.49688816 198.12304783 C-3.53719119 148.76078714 -3.53719119 148.76078714 -3.54571629 128.1445322 C-3.55165997 113.88500708 -3.55866356 99.62548785 -3.57232761 85.36596775 C-3.58227242 74.98285462 -3.5887411 64.59974625 -3.59097666 54.21662849 C-3.59228411 48.71520457 -3.59537214 43.21379426 -3.60261822 37.71237469 C-3.60937523 32.54065798 -3.61150578 27.36896058 -3.60999584 22.19723988 C-3.61027231 20.29322867 -3.61227932 18.38921687 -3.61609364 16.48520947 C-3.62102592 13.89751017 -3.61988818 11.30988498 -3.61714268 8.72218418 C-3.62005552 7.95858021 -3.62296836 7.19497624 -3.62596947 6.40823275 C-3.60794458 0.17780121 -3.60794458 0.17780121 0 0 Z M48.50311184 45.12304783 C48.50311184 45.78304783 48.50311184 46.44304783 48.50311184 47.12304783 C47.51311184 47.45304783 46.52311184 47.78304783 45.50311184 48.12304783 C39.92174477 55.78033539 36.31092352 63.35739827 36.62811184 72.87304783 C37.60754628 76.51094718 38.89433529 78.43521744 41.50311184 81.12304783 C44.36919313 82.55608847 46.31611967 82.42948938 49.50311184 82.12304783 C53.55609378 80.07338225 55.19967176 78.94851553 56.78826809 74.62695408 C57.07109617 73.31805204 57.32980743 72.00373316 57.56561184 70.68554783 C58.60170903 65.11035816 60.04031261 61.85356112 64.50311184 58.12304783 C68.61670205 55.78830744 72.86970761 55.44894298 77.50311184 56.12304783 C82.15929286 57.53426785 84.91677631 59.40478681 88.00311184 63.18554783 C90.28823308 67.98224377 90.46734243 72.95328844 89.50311184 78.12304783 C87.37095546 82.86203775 84.48184873 86.06039002 79.62811184 87.99804783 C76.84615583 88.84171203 74.02208353 89.46843235 71.19061184 90.12304783 C67.11429255 91.19410076 67.11429255 91.19410076 64.50311184 94.12304783 C63.9912293 96.49197468 63.9912293 96.49197468 64.06561184 99.06054783 C64.0462759 99.91519627 64.02693996 100.7698447 64.00701809 101.65039158 C64.67831634 104.99631122 65.78397486 106.08816736 68.50311184 108.12304783 C71.58627849 109.09971692 71.58627849 109.09971692 74.94061184 109.62304783 C81.07524418 110.70353927 84.51476444 112.47336826 88.28826809 117.50195408 C90.47920732 122.22902875 90.11100802 127.03191732 89.50311184 132.12304783 C87.52255909 136.55948598 84.93007174 139.19468633 80.55779934 141.42773533 C75.89872004 143.00438193 71.0418067 143.05311174 66.41326809 141.35742283 C62.91671823 139.49456751 60.56033103 137.4653087 58.50311184 134.12304783 C57.68189783 130.8381918 57.11605905 127.55298095 56.54217434 124.21679783 C55.2788716 120.45538516 53.78695869 119.2585556 50.50311184 117.12304783 C47.85166713 116.00665005 46.40045398 115.77462214 43.70233059 116.82226658 C40.06803248 118.72594654 37.93659436 120.13955118 36.50311184 124.12304783 C36.32496881 133.11927068 39.23540568 141.84721059 44.50311184 149.12304783 C45.17600246 149.45820408 45.84889309 149.79336033 46.54217434 150.13867283 C48.50311184 151.12304783 48.50311184 151.12304783 49.41717434 153.04882908 C50.95746476 155.9908946 52.96501529 156.79152027 55.87811184 158.31054783 C56.83459621 158.81972752 57.79108059 159.3289072 58.77654934 159.85351658 C66.39434389 163.40048395 76.3536429 163.29949308 84.49529934 161.43945408 C90.46866824 159.19711466 97.5238168 155.67562868 100.72186184 149.93554783 C100.97967434 149.33742283 101.23748684 148.73929783 101.50311184 148.12304783 C102.16311184 148.12304783 102.82311184 148.12304783 103.50311184 148.12304783 C109.4204621 138.97599876 111.65568537 129.88591546 109.50311184 119.12304783 C108.25899738 113.66808444 106.12455039 109.02233831 103.50311184 104.12304783 C102.84311184 104.12304783 102.18311184 104.12304783 101.50311184 104.12304783 C100.84311184 102.14304783 100.18311184 100.16304783 99.50311184 98.12304783 C100.05998684 97.64867283 100.61686184 97.17429783 101.19061184 96.68554783 C107.36887174 89.83936794 110.51340516 81.81370316 110.49920559 72.58398533 C109.74816055 62.2611109 106.2848934 52.61208096 98.65154934 45.36523533 C83.69366182 33.50619303 63.41483617 32.24474045 48.50311184 45.12304783 Z " fill="#B529FD" transform="translate(596.4968881607056,626.8769521713257)"/>
<path d="M0 0 C0.66 0 1.32 0 2 0 C2.53238281 1.08796875 3.06476563 2.1759375 3.61328125 3.296875 C6.81973977 9.71261836 10.35116865 15.95457655 13.84179688 22.21875 C14.36193359 23.16234375 14.88207031 24.1059375 15.41796875 25.078125 C15.89000732 25.92793945 16.3620459 26.77775391 16.84838867 27.65332031 C18 30 18 30 18.41137695 32.18261719 C18.84243848 34.17313119 18.84243848 34.17313119 20.83032227 35.16088867 C29.90514069 38.67052645 39.02643687 40.47271395 48.5625 42.1875 C50.06326001 42.46229618 51.56391215 42.73768214 53.06445312 43.01367188 C56.70841712 43.68258445 60.35377538 44.34350756 64 45 C62.5 48 62.5 48 61 51 C60.34 51 59.68 51 59 51 C59 51.66 59 52.32 59 53 C57.37341452 54.72824707 55.71342866 56.36071008 54 58 C51.96655753 60.02524311 49.94161137 62.05871727 47.91796875 64.09375 C46.4110521 65.59145942 44.868105 67.05292558 43.3125 68.5 C39.186473 72.96056973 35.71615532 77.1486071 35.5625 83.4375 C35.78385394 87.168895 36.52949687 90.66074446 37.421875 94.28125 C38.18102425 97.85130321 38.66528841 101.44446135 39.125 105.0625 C39.25624268 106.05358765 39.25624268 106.05358765 39.39013672 107.06469727 C39.96735336 111.75153383 40.07351991 116.28947458 40 121 C35.17991327 119.53981917 30.89344855 117.54494636 26.4375 115.25 C25.0187342 114.53545468 23.59945578 113.82192636 22.1796875 113.109375 C20.16195279 112.09356908 18.14606688 111.0752164 16.13769531 110.04101562 C14.4544044 109.17735718 12.75865988 108.33810253 11.0625 107.5 C10.10472656 107.0153125 9.14695312 106.530625 8.16015625 106.03125 C-0.40293954 103.23686522 -6.18162494 105.57243771 -14.09570312 109.47460938 C-15.29317966 110.08682722 -16.49044381 110.69946066 -17.6875 111.3125 C-18.89567118 111.91504476 -20.10465208 112.51596881 -21.31445312 113.11523438 C-25.64833055 115.27373203 -29.96556231 117.46198708 -34.26098633 119.69604492 C-37 121 -37 121 -39 121 C-38.49745995 114.75792358 -37.80679412 108.57719778 -36.9375 102.375 C-36.17835192 96.54502389 -35.73344287 90.75401539 -35.625 84.875 C-35.59913818 84.17681152 -35.57327637 83.47862305 -35.54663086 82.75927734 C-35.52055642 75.81001755 -39.11445105 71.80604551 -43.5 66.8125 C-44.0671875 66.15894531 -44.634375 65.50539063 -45.21875 64.83203125 C-46.97427857 62.92264072 -46.97427857 62.92264072 -49.21875 61.38671875 C-49.8065625 60.92910156 -50.394375 60.47148437 -51 60 C-51 59.34 -51 58.68 -51 58 C-51.66 58 -52.32 58 -53 58 C-54.62109375 56.35546875 -54.62109375 56.35546875 -56.4375 54.1875 C-58.97339332 51.17536735 -58.97339332 51.17536735 -61.72265625 48.36328125 C-63 47 -63 47 -63 45 C-61.90534424 44.80365967 -60.81068848 44.60731934 -59.68286133 44.4050293 C-55.60886835 43.67154806 -51.53740125 42.92479231 -47.46655273 42.17407227 C-45.70679395 41.85145252 -43.94637698 41.53240112 -42.18530273 41.21704102 C-39.64904797 40.76221984 -37.11546402 40.29447323 -34.58203125 39.82421875 C-33.79850784 39.68658615 -33.01498444 39.54895355 -32.2077179 39.40715027 C-25.82824683 38.20156009 -21.3248157 35.99716099 -17 31 C-15.52457165 28.45740782 -15.52457165 28.45740782 -14.25 25.625 C-10.83405955 18.54105225 -6.97239983 11.78441848 -3 5 C-2.46761719 4.03964844 -1.93523437 3.07929688 -1.38671875 2.08984375 C-0.92910156 1.40019531 -0.47148437 0.71054687 0 0 Z " fill="#BB36FE" transform="translate(313,323)"/>
<path d="M0 0 C0.66 0 1.32 0 2 0 C6.55408139 6.61985027 10.0451081 13.97806361 13.59765625 21.16796875 C19.22455353 32.64496759 19.22455353 32.64496759 30 39 C32.64400119 39.55753444 35.26390261 40.05945797 37.92578125 40.5078125 C38.67337204 40.63815887 39.42096283 40.76850525 40.19120789 40.90280151 C42.5641181 41.31532643 44.93824948 41.72026813 47.3125 42.125 C48.92782109 42.40444715 50.54305654 42.68438977 52.15820312 42.96484375 C56.10450051 43.64896894 60.05191021 44.32629915 64 45 C63.26459235 48.33384804 62.30130525 50.42253812 60 53 C59.34 53 58.68 53 58 53 C58 53.66 58 54.32 58 55 C56.625 56.625 56.625 56.625 55 58 C54.34 58 53.68 58 53 58 C52.731875 58.639375 52.46375 59.27875 52.1875 59.9375 C51 62 51 62 48 63 C47.31505479 64.32403636 46.65135313 65.6591192 46 67 C43.97835006 69.12500628 41.89479974 71.1659243 39.77734375 73.1953125 C34.91610435 80.86645511 37.30248202 91.10130446 38.375 99.625 C38.58382812 101.3884375 38.58382812 101.3884375 38.796875 103.1875 C39.18661522 106.45984716 39.59008039 109.73012715 40 113 C40.10731445 113.86334961 40.21462891 114.72669922 40.32519531 115.61621094 C40.54865459 117.41099163 40.77403017 119.20553367 41 121 C36.68980794 120.37181832 33.32505085 118.83336139 29.44921875 116.875 C28.18050165 116.24446336 26.91161606 115.61426566 25.64257812 114.984375 C23.66567786 113.99482264 21.69077879 113.00166237 19.71899414 112.00195312 C17.80081106 111.03242233 15.87566156 110.07798959 13.94921875 109.125 C12.80799561 108.55007813 11.66677246 107.97515625 10.4909668 107.3828125 C5.8283258 105.53588624 1.50922715 104.44293596 -3.51171875 105.55761719 C-4.22972656 105.88407227 -4.94773437 106.21052734 -5.6875 106.546875 C-6.52925781 106.92134766 -7.37101563 107.29582031 -8.23828125 107.68164062 C-9.14964844 108.11669922 -10.06101562 108.55175781 -11 109 C-12.02480469 109.48146484 -13.04960938 109.96292969 -14.10546875 110.45898438 C-18.56274244 112.58111528 -22.9932835 114.75639898 -27.42578125 116.9296875 C-29.04033203 117.71472656 -29.04033203 117.71472656 -30.6875 118.515625 C-31.66074219 118.99290039 -32.63398437 119.47017578 -33.63671875 119.96191406 C-36 121 -36 121 -38 121 C-38.44652223 110.68037512 -37.36470932 100.01785562 -34.8125 90 C-33.52571808 84.59551595 -33.87720435 80.15202499 -36.5 75.125 C-42.34498994 67.00583945 -42.34498994 67.00583945 -50 61 C-50 60.34 -50 59.68 -50 59 C-50.66 59 -51.32 59 -52 59 C-53.62109375 57.35546875 -53.62109375 57.35546875 -55.4375 55.1875 C-57.95599885 52.18813535 -57.95599885 52.18813535 -60.72265625 49.42578125 C-62 48 -62 48 -62 45 C-60.88028809 44.80889648 -59.76057617 44.61779297 -58.60693359 44.42089844 C-54.43344463 43.70469165 -50.26345464 42.96964314 -46.09423828 42.22900391 C-44.29304795 41.91171755 -42.49096143 41.59947408 -40.68798828 41.29248047 C-38.08891949 40.84901705 -35.49366783 40.38721283 -32.8984375 39.921875 C-32.0982016 39.78940369 -31.2979657 39.65693237 -30.47348022 39.52044678 C-25.50964399 38.6074833 -21.97113293 37.30492558 -18 34 C-16.4751298 31.87080996 -16.4751298 31.87080996 -15.515625 29.46875 C-13.76765703 25.6595782 -11.93900333 21.9564628 -9.921875 18.28125 C-9.40109375 17.32992188 -8.8803125 16.37859375 -8.34375 15.3984375 C-7.8178125 14.44195312 -7.291875 13.48546875 -6.75 12.5 C-5.68203027 10.55222664 -4.61430898 8.60431702 -3.546875 6.65625 C-2.84836426 5.38491211 -2.84836426 5.38491211 -2.13574219 4.08789062 C-1.40110691 2.73737453 -0.68754385 1.3750877 0 0 Z " fill="#B528FD" transform="translate(685,412)"/>
<path d="M0 0 C4.06352794 1.35450931 4.80997614 3.88179137 6.625 7.5 C6.96547363 8.15693848 7.30594727 8.81387695 7.65673828 9.49072266 C8.390242 10.90621533 9.11974693 12.32378574 9.84570312 13.74316406 C11.83445266 17.63148909 13.85156031 21.50464573 15.875 25.375 C16.2560791 26.11814453 16.6371582 26.86128906 17.02978516 27.62695312 C18.81101181 31.46381784 18.81101181 31.46381784 22 34 C22 34.66 22 35.32 22 36 C30.85803024 39.04042953 39.92928967 40.57746 49.125 42.1875 C50.66936659 42.46235315 52.21363833 42.73773978 53.7578125 43.01367188 C57.50414412 43.68193186 61.25168216 44.34297644 65 45 C63.37159701 48.40219909 61.51714616 51.16821057 59 54 C58.34 54 57.68 54 57 54 C57 54.66 57 55.32 57 56 C55.37341452 57.72824707 53.71342866 59.36071008 52 61 C49.97047153 63.02134489 47.94940275 65.05088365 45.9296875 67.08203125 C44.3562062 68.645957 42.74566824 70.17252752 41.125 71.6875 C37.21677858 75.94056449 36.80650466 79.39312838 36.85083008 85.09326172 C37.17499676 91.41000224 38.14188024 97.67509749 39 103.9375 C39.28678814 106.06747933 39.5719292 108.1976691 39.85595703 110.32801819 C40.11197276 112.24242985 40.37227791 114.15626644 40.6328125 116.07006836 C41 119 41 119 41 121 C36.67376082 119.64888785 32.68421611 117.9843659 28.61328125 115.99609375 C27.42798828 115.42052734 26.24269531 114.84496094 25.02148438 114.25195312 C23.78503221 113.64738904 22.54870532 113.04256867 21.3125 112.4375 C18.87222026 111.24635449 16.4305162 110.05823578 13.98828125 108.87109375 C12.91102783 108.34443115 11.83377441 107.81776855 10.72387695 107.27514648 C6.23029697 105.17153725 2.9590865 104.66939423 -2 105 C-4.37701615 105.94670785 -6.68188698 106.92729027 -9 108 C-10.09997314 108.50619873 -11.19994629 109.01239746 -12.33325195 109.53393555 C-14.01874146 110.32731323 -14.01874146 110.32731323 -15.73828125 111.13671875 C-16.98234708 111.71956072 -18.22648987 112.30223844 -19.47070312 112.88476562 C-21.40486867 113.79166063 -23.33845136 114.69973315 -25.27075195 115.6105957 C-27.15417436 116.49773382 -29.03977125 117.380098 -30.92578125 118.26171875 C-32.04380127 118.78725342 -33.16182129 119.31278809 -34.3137207 119.85424805 C-37 121 -37 121 -39 121 C-38.71536919 118.16580388 -38.42249381 115.33285146 -38.125 112.5 C-38.04636719 111.70851563 -37.96773438 110.91703125 -37.88671875 110.1015625 C-37.47686398 106.25523312 -36.95670023 102.56080362 -35.97265625 98.81640625 C-33.99071287 91.03986537 -33.34950047 82.88571997 -35 75 C-35.66 75 -36.32 75 -37 75 C-37 74.01 -37 73.02 -37 72 C-37.66 72 -38.32 72 -39 72 C-40.41015625 70.56640625 -40.41015625 70.56640625 -42.0625 68.5625 C-45.57070655 64.41038212 -49.35450405 60.64192767 -53.27734375 56.8828125 C-55 55 -55 55 -55 53 C-55.639375 52.731875 -56.27875 52.46375 -56.9375 52.1875 C-59 51 -59 51 -60 48 C-60.66 48 -61.32 48 -62 48 C-62 47.01 -62 46.02 -62 45 C-60.90534424 44.80365967 -59.81068848 44.60731934 -58.68286133 44.4050293 C-54.60886835 43.67154806 -50.53740125 42.92479231 -46.46655273 42.17407227 C-44.70679395 41.85145252 -42.94637698 41.53240112 -41.18530273 41.21704102 C-38.64904797 40.76221984 -36.11546402 40.29447323 -33.58203125 39.82421875 C-32.79850784 39.68658615 -32.01498444 39.54895355 -31.2077179 39.40715027 C-26.85997665 38.58551567 -23.74121413 37.48262684 -20 35 C-19.34 35 -18.68 35 -18 35 C-17.79375 34.21625 -17.5875 33.4325 -17.375 32.625 C-15.86483924 28.6436671 -13.87631652 25.32835484 -11.6484375 21.71484375 C-7.3817866 14.68801347 -3.61897326 7.37713781 0 0 Z " fill="#B82FFD" transform="translate(497,175)"/>
</svg>
