<?xml version="1.0" encoding="UTF-8"?>
<svg version="1.1" xmlns="http://www.w3.org/2000/svg" width="1000" height="1000" viewBox="0 0 1000 1000" preserveAspectRatio="xMidYMid meet">
<path d="M0 0 C1.58783546 -0.00855011 1.58783546 -0.00855011 3.20774841 -0.01727295 C5.44407165 -0.02667233 7.68040841 -0.03323665 9.91674805 -0.03710938 C13.24749869 -0.0466991 16.57759984 -0.07772326 19.90820312 -0.109375 C35.05539879 -0.18428993 49.76593891 0.97651939 64.74609375 3.203125 C65.45277191 3.30790161 66.15945007 3.41267822 66.88754272 3.52062988 C70.54648042 4.0786261 74.17873887 4.73108561 77.80859375 5.453125 C78.86892822 5.66146973 79.9292627 5.86981445 81.02172852 6.08447266 C133.14677994 16.73737313 181.35196563 41.39695537 219.74609375 78.203125 C220.69355469 79.09773438 221.64101563 79.99234375 222.6171875 80.9140625 C229.7468676 87.81114311 235.83049233 95.27034476 241.74609375 103.203125 C242.37128906 104.03328125 242.99648438 104.8634375 243.640625 105.71875 C266.58329556 137.31193569 280.01125682 175.50468426 279.30859375 214.56835938 C279.24476476 218.15275582 279.22646736 221.73539702 279.21484375 225.3203125 C279.19655449 227.61200088 279.17581947 229.90367138 279.15234375 232.1953125 C279.14384399 233.26071259 279.13534424 234.32611267 279.12658691 235.42379761 C279.09776428 236.89406906 279.09776428 236.89406906 279.06835938 238.39404297 C279.04787537 239.6832515 279.04787537 239.6832515 279.02697754 240.99850464 C278.74609375 243.203125 278.74609375 243.203125 276.74609375 246.203125 C276.14923574 248.17078675 276.14923574 248.17078675 275.73828125 250.3515625 C275.56079346 251.18123535 275.38330566 252.0109082 275.20043945 252.86572266 C275.00925537 253.76081543 274.81807129 254.6559082 274.62109375 255.578125 C266.62761884 290.66211385 247.47430384 321.4345207 222.74609375 347.203125 C222.16085937 347.8209082 221.575625 348.43869141 220.97265625 349.07519531 C211.30684175 359.23733535 201.1696326 368.07270902 189.74609375 376.203125 C189.14539063 376.63786133 188.5446875 377.07259766 187.92578125 377.52050781 C146.06156176 407.62801544 94.38750108 422.44525514 43.74609375 428.203125 C42.98828613 428.28933105 42.23047852 428.37553711 41.44970703 428.46435547 C37.21782923 428.91350106 32.99829459 429.12002943 28.74609375 429.203125 C27.81216797 429.22358887 26.87824219 429.24405273 25.91601562 429.26513672 C-3.78707206 429.81603703 -33.95774338 427.84395264 -62.73046875 419.9921875 C-63.42693512 419.80332977 -64.12340149 419.61447205 -64.8409729 419.41989136 C-68.18977316 418.50300514 -71.52084518 417.54864057 -74.84033203 416.53076172 C-76.04415527 416.1854541 -77.24797852 415.84014648 -78.48828125 415.484375 C-80.05400879 415.00581055 -80.05400879 415.00581055 -81.65136719 414.51757812 C-90.07993242 413.78187793 -99.03041601 418.04278325 -106.93505859 420.7565918 C-109.01523973 421.46419341 -111.09543017 422.17176766 -113.17562866 422.87931824 C-114.26117413 423.24986013 -115.34671959 423.62040203 -116.46516037 424.00217247 C-122.27614977 425.98269401 -128.09374753 427.9436672 -133.91015625 429.90820312 C-141.28262639 432.39961765 -148.65302939 434.89670026 -156.01660156 437.41430664 C-161.99527706 439.45784554 -167.98021915 441.48197777 -173.96971512 443.49357033 C-176.23890834 444.25959575 -178.50575447 445.03261322 -180.77006149 445.81296349 C-205.16694389 454.2131647 -205.16694389 454.2131647 -214.25390625 452.203125 C-218.6705687 449.70022603 -221.22030379 446.83751803 -223.25390625 442.203125 C-224.75330943 434.014608 -221.71443569 426.35870869 -219.03717041 418.74414062 C-218.23542936 416.46305519 -217.45339698 414.17596729 -216.67529297 411.88671875 C-214.18234031 404.57588154 -211.63277245 397.28483009 -209.08300781 389.99365234 C-207.20585247 384.62583202 -205.34186753 379.2535577 -203.48339844 373.87924194 C-202.38798346 370.72922776 -201.27448167 367.58599248 -200.16015625 364.44262695 C-199.48486041 362.49849311 -198.81034321 360.55408859 -198.13671875 358.609375 C-197.8144632 357.71615036 -197.49220764 356.82292572 -197.16018677 355.90263367 C-196.73695633 354.66402336 -196.73695633 354.66402336 -196.30517578 353.40039062 C-195.92644821 352.32416443 -195.92644821 352.32416443 -195.54006958 351.22619629 C-195.16491823 348.57401184 -195.84045185 347.44039166 -197.25390625 345.203125 C-198.85035042 343.27194253 -200.46906299 341.39023059 -202.12890625 339.515625 C-225.01513873 312.98329222 -241.92126874 280.7824089 -248.78125 246.30078125 C-249.05230796 244.22659677 -249.05230796 244.22659677 -250.25390625 243.203125 C-250.36305301 241.57919336 -250.40297146 239.95054877 -250.41503906 238.32299805 C-250.42464661 237.28068527 -250.43425415 236.2383725 -250.44415283 235.16447449 C-250.44840271 234.02609634 -250.45265259 232.8877182 -250.45703125 231.71484375 C-250.46273132 230.54613235 -250.4684314 229.37742096 -250.4743042 228.17329407 C-250.48377826 225.68739736 -250.49029767 223.20148796 -250.49414062 220.71557617 C-250.50376763 216.94491863 -250.5347357 213.17482447 -250.56640625 209.40429688 C-250.572944 206.9869824 -250.57819143 204.56966402 -250.58203125 202.15234375 C-250.59437805 201.03623215 -250.60672485 199.92012054 -250.6194458 198.77018738 C-250.59827249 191.17184556 -249.36545473 184.48671674 -247.25390625 177.203125 C-246.93808594 175.93082031 -246.62226563 174.65851563 -246.296875 173.34765625 C-234.94541929 129.13399541 -209.34806542 90.25950923 -173.25390625 62.203125 C-171.78050781 61.02169922 -171.78050781 61.02169922 -170.27734375 59.81640625 C-123.12669546 22.30498469 -60.30316849 0.26004565 0 0 Z " fill="#B830FD" transform="translate(483.25390625,273.796875)"/>
<path d="M0 0 C8.60438375 7.13401438 15.63419255 15.98791974 17.6875 27.25 C18.58346926 41.89565139 16.12622662 53.11394489 6.71875 64.66796875 C-1.8744056 73.96165334 -13.03025694 78.9982194 -25.625 79.5625 C-39.17686546 79.16113813 -50.04468084 73.44052581 -59.26953125 63.7421875 C-68.29134475 52.73661004 -70.47211753 41.17990563 -69.3125 27.25 C-67.63593791 19.69594467 -64.04770252 13.31013753 -59.3125 7.25 C-58.83425781 6.63382812 -58.35601562 6.01765625 -57.86328125 5.3828125 C-43.2870933 -11.1393149 -17.42830039 -12.09172779 0 0 Z " fill="#FAFBFE" transform="translate(523.3125,452.75)"/>
<path d="M0 0 C9.5708514 6.87050404 16.78347773 15.43724269 19.3125 27.25 C20.19649617 41.87216617 18.85408206 52.72850473 9.640625 64.671875 C1.8415991 73.30838019 -9.13377246 79.35001117 -20.84375 80.453125 C-34.46900911 80.72563018 -45.25246892 76.14760529 -55.4375 67.1875 C-65.00722341 57.06301002 -67.26129415 44.42788323 -67.02734375 31.1015625 C-66.5079252 19.96747028 -60.59738949 10.7052826 -52.5546875 3.28125 C-37.08690581 -9.43790149 -16.95094489 -10.53318477 0 0 Z " fill="#FBFCFE" transform="translate(405.6875,451.75)"/>
<path d="M0 0 C9.17337599 6.93883568 14.06502962 14.88258885 17.6875 25.75 C19.04584387 40.40887238 17.28131905 53.10494124 7.6875 64.75 C-1.30610463 74.29599493 -11.98403956 79.59846458 -25.0625 80.125 C-37.12673903 79.86702256 -48.21437241 74.67741795 -56.82421875 66.30859375 C-66.06058641 55.82035477 -69.45876804 44.82820454 -68.796875 31.06640625 C-67.70195898 18.46104735 -60.12049848 8.58574276 -50.8203125 0.578125 C-35.61166746 -10.50855083 -15.51226835 -10.19377634 0 0 Z " fill="#FBFCFD" transform="translate(638.3125,452.25)"/>
</svg>
