<?xml version="1.0" encoding="UTF-8"?>
<svg version="1.1" xmlns="http://www.w3.org/2000/svg" width="1000" height="1000" viewBox="0 0 1000 1000" preserveAspectRatio="xMidYMid meet">
<path d="M0 0 C0.8559375 0.43570313 1.711875 0.87140625 2.59375 1.3203125 C13.30388838 7.22379239 21.63963498 16.04672034 25.2578125 27.87890625 C30.01826231 44.96347538 30.01826231 44.96347538 27 51 C27.53625 51.07476562 28.0725 51.14953125 28.625 51.2265625 C56.9141982 55.97244772 84.15568781 73.94605391 104.859375 93.046875 C106.59341258 94.62902608 108.34699382 96.10946881 110.1875 97.5625 C113.85867955 100.74418895 116.87436859 104.29141353 120 108 C120.7528125 108.85335937 121.505625 109.70671875 122.28125 110.5859375 C152.95065851 146.01104543 166.03331166 190.80448012 166.19923019 236.9907074 C166.21117717 240.02971523 166.23066934 243.06859074 166.25234985 246.10754395 C166.31342739 254.74157177 166.36778188 263.3755833 166.40136719 272.00976562 C166.42253883 277.31348996 166.45801383 282.61696658 166.50212479 287.92054749 C166.5161046 289.91997833 166.52496551 291.91945292 166.52817917 293.91893005 C166.5868867 326.9571318 174.60729582 355.46786192 193 383 C193.66918457 384.00272949 194.33836914 385.00545898 195.02783203 386.03857422 C196.54032275 388.30344325 198.05394011 390.56755561 199.56811523 392.83129883 C228.01818716 435.373016 228.01818716 435.373016 228.17700195 454.86645508 C228.18357315 455.53708481 228.19014435 456.20771454 228.19691467 456.89866638 C228.21653431 459.1056227 228.22828404 461.31251138 228.23828125 463.51953125 C228.24235678 464.27724005 228.2464323 465.03494884 228.25063133 465.81561852 C228.27144259 469.82539975 228.28576625 473.83514725 228.29516602 477.8449707 C228.30622748 481.97069386 228.34063805 486.09587728 228.38033772 490.2214098 C228.40656576 493.40859432 228.41486323 496.59565126 228.41844749 499.78293419 C228.42329653 501.30308368 228.43486224 502.82322811 228.45348549 504.34327126 C228.62371515 519.15660744 228.62371515 519.15660744 224 526 C218.51275486 531.48724514 212.85009511 534.31119134 205.10080299 534.40266097 C204.37602993 534.39620916 203.65125687 534.38975736 202.90452099 534.38311005 C202.11434628 534.38806956 201.32417157 534.39302908 200.51005217 534.39813888 C197.86397423 534.41108567 195.21840166 534.40271327 192.5723114 534.39440918 C190.65536113 534.39929852 188.73841382 534.40548852 186.82147151 534.41286707 C181.55481702 534.4292843 176.28831205 534.426945 171.0216409 534.4214921 C165.34120093 534.41882411 159.66080101 534.4333494 153.9803772 534.44558716 C142.85195769 534.46665323 131.72359027 534.47118133 120.59515318 534.46939927 C111.55029946 534.46809221 102.505462 534.47189293 93.46061134 534.47932434 C90.85632748 534.48142351 88.25204361 534.48352111 85.64775974 534.48561716 C83.70348273 534.48718245 83.70348273 534.48718245 81.71992741 534.48877937 C64.16587959 534.50231475 46.61184054 534.50990495 29.0577879 534.50545502 C28.02816431 534.50519708 28.02816431 534.50519708 26.97774025 534.50493394 C23.49876023 534.50404506 20.01978023 534.50310025 16.54080024 534.50213593 C15.50440735 534.50184938 15.50440735 534.50184938 14.44707723 534.50155704 C13.04985162 534.50116995 11.65262601 534.50077962 10.25540041 534.50038607 C-11.48334101 534.49441662 -33.22197595 534.50985206 -54.96069336 534.54199219 C-79.38830631 534.57807721 -103.81584025 534.59735695 -128.24348325 534.59245348 C-141.17588175 534.59020793 -154.10817472 534.59546452 -167.04055214 534.62034607 C-178.05059751 534.64134857 -189.06047947 534.64496153 -200.07053152 534.62604648 C-205.68799264 534.6168822 -211.30514898 534.61576714 -216.92258644 534.63640213 C-222.06658133 534.65508899 -227.21002137 534.65063392 -232.35399499 534.62785631 C-234.21330614 534.62366482 -236.07265964 534.627889 -237.93192605 534.64145225 C-256.66873185 534.76881057 -256.66873185 534.76881057 -264 529 C-269.18637276 523.390482 -271.11337385 519.17383666 -271.17700195 511.47167969 C-271.18357315 510.81258606 -271.19014435 510.15349243 -271.19691467 509.47442627 C-271.21663715 507.2902412 -271.22831704 505.10612538 -271.23828125 502.921875 C-271.24235678 502.17106911 -271.2464323 501.42026321 -271.25063133 500.64670563 C-271.27150236 496.66128313 -271.28579125 492.67589501 -271.29516602 488.69042969 C-271.30614359 484.61241311 -271.34043792 480.5349554 -271.38033772 476.45713425 C-271.40676412 473.29110858 -271.4148813 470.12520975 -271.41844749 466.95908356 C-271.42325844 465.45867452 -271.43471113 463.95826896 -271.45348549 462.45796967 C-271.71098571 440.48851782 -263.4281086 424.19689956 -251.40213013 406.22189331 C-249.84708541 403.89574331 -248.30192712 401.56330687 -246.75952148 399.22875977 C-243.14259852 393.75472602 -239.51809487 388.28574192 -235.88818359 382.8203125 C-226.52541975 368.66461368 -219.40874927 354.58093405 -214.625 338.25 C-214.38604004 337.43547363 -214.14708008 336.62094727 -213.90087891 335.78173828 C-210.22818149 322.41801306 -209.70113946 309.23719431 -209.66447449 295.47634125 C-209.65605134 292.41210637 -209.63542568 289.34815099 -209.61193848 286.28399658 C-209.56411387 279.77270696 -209.53095557 273.26138881 -209.5 266.75 C-209.46405287 259.20655695 -209.42174036 251.66325251 -209.36405945 244.11994171 C-209.34433089 241.13477048 -209.33574178 238.14971176 -209.32775879 235.16448975 C-209.2430132 219.97600473 -208.3338595 204.95430519 -204.8125 190.125 C-204.59891846 189.21210205 -204.38533691 188.2992041 -204.1652832 187.35864258 C-196.56432142 156.11144166 -181.63784816 128.20333006 -159.578125 104.7890625 C-157.77452461 102.8378948 -156.06675716 100.89772764 -154.38671875 98.84765625 C-151.24069803 95.09405706 -147.76859425 92.11162853 -144 89 C-143.01128906 88.17371094 -142.02257812 87.34742188 -141.00390625 86.49609375 C-124.54118482 72.99622323 -105.85583478 62.51718011 -85.9375 55.0625 C-85.15189697 54.76762695 -84.36629395 54.47275391 -83.55688477 54.16894531 C-79.02085441 52.53467241 -74.79707715 51.50327901 -70 51 C-70.33 50.34 -70.66 49.68 -71 49 C-72.22620994 34.77596474 -67.26563968 21.8421464 -58.34375 10.984375 C-53.93802444 6.2045784 -48.7475002 2.96342135 -43 0 C-41.83791016 -0.62455078 -41.83791016 -0.62455078 -40.65234375 -1.26171875 C-28.75091165 -6.63716748 -11.46816226 -6.15458041 0 0 Z " fill="#B82FFD" transform="translate(521,188)"/>
<path d="M0 0 C52.47 0 104.94 0 159 0 C155.21198674 22.72807956 145.1912399 41.4721326 126.25 55.3125 C119.57950436 59.97957653 112.70508961 63.3103201 105 66 C104.04609375 66.33902344 103.0921875 66.67804688 102.109375 67.02734375 C81.91366438 72.8862598 58.71895701 69.83756075 40.3828125 60.04296875 C20.59817713 48.09451113 6.58047354 30.54610961 1 8 C0.67 5.36 0.34 2.72 0 0 Z " fill="#B82FFD" transform="translate(420,747)"/>
<path d="M0 0 C6.22847294 2.23175545 11.20041728 6.27199767 16.1875 10.5 C16.92291016 11.11512451 17.65832031 11.73024902 18.41601562 12.36401367 C25.14394747 18.03359457 31.64220445 23.92014087 38 30 C38.81984375 30.77859375 39.6396875 31.5571875 40.484375 32.359375 C45.28573066 37.02827947 49.5834483 41.97517274 53.76171875 47.20703125 C55.19609581 48.99687348 56.65517734 50.76735706 58.14453125 52.51171875 C74.19521963 71.39658274 85.91871982 93.4813767 96 116 C96.28810547 116.63341309 96.57621094 117.26682617 96.87304688 117.91943359 C100.14535576 125.21012179 102.41297618 131.95792062 101 140 C99.21049365 143.85432136 97.73665715 145.49773376 94.25 147.875 C88.90122947 149.72649749 84.34783153 149.95612868 79.25 147.5 C76.6666411 145.76944199 75.3830078 144.25849416 74.0546875 141.45703125 C73.54808594 140.3899292 73.54808594 140.3899292 73.03125 139.30126953 C71.62075771 136.15370791 70.27759626 132.98174715 68.95727539 129.79541016 C58.43760283 104.44663003 44.72318223 81.46811744 26.06640625 61.25390625 C24.23259442 59.2536994 22.48962633 57.20656762 20.75 55.125 C12.47557172 45.69819701 2.82970477 37.83675011 -7.26318359 30.45239258 C-12.0086035 26.94140434 -16.07074456 23.78776633 -18 18 C-18.39614654 12.75105833 -17.86557317 9.44657906 -15 5 C-10.13885301 0.61311125 -6.56830759 -0.82733658 0 0 Z " fill="#B427FD" transform="translate(648,207)"/>
<path d="M0 0 C4.6314797 2.53420588 8.31032562 4.93097685 10 10 C10.23828125 12.05078125 10.23828125 12.05078125 10.3125 14.3125 C10.36857422 15.42044922 10.36857422 15.42044922 10.42578125 16.55078125 C9.35700499 22.69869609 4.5659196 26.57149705 -0.0625 30.3125 C-0.63395752 30.7861499 -1.20541504 31.2597998 -1.79418945 31.74780273 C-4.49112423 33.97723391 -7.21436176 36.17171685 -9.9453125 38.359375 C-40.18851751 62.65733458 -63.59044498 97.98060564 -76.75 134.375 C-78.87163586 140.11289492 -80.88902234 142.74722307 -85.8125 146.3125 C-90.55529292 147.80309206 -94.65550095 147.46540352 -99.25 145.875 C-102.73665715 143.49773376 -104.21049365 141.85432136 -106 138 C-107.08316615 129.72948574 -105.09472453 123.22901928 -101.75 115.75 C-101.30253418 114.71858887 -100.85506836 113.68717773 -100.39404297 112.62451172 C-88.87702981 86.53964726 -74.44825905 62.28862065 -55.07421875 41.2578125 C-53.20979587 39.22836537 -51.41225446 37.15965844 -49.625 35.0625 C-41.82849771 26.15221167 -33.32245598 18.28551185 -24 11 C-23.43893555 10.55672363 -22.87787109 10.11344727 -22.29980469 9.65673828 C-20.53776667 8.26522228 -18.77016247 6.88116197 -17 5.5 C-16.17169678 4.84922485 -16.17169678 4.84922485 -15.32666016 4.18530273 C-10.42731435 0.40496205 -6.18897103 -0.86739367 0 0 Z " fill="#BB36FE" transform="translate(356,209)"/>
</svg>
